<svg xmlns="http://www.w3.org/2000/svg">
  <!-- Ícono de construcción (Navbar logo) -->
  <symbol id="building" viewBox="0 0 24 24">
    <path d="M12 2C6.477 2 2 6.477 2 12s4.477 10 10 10 10-4.477 10-10S17.523 2 12 2zm0 18c-4.411 0-8-3.589-8-8s3.589-8 8-8 8 3.589 8 8-3.589 8-8 8zm-4-8h8v-2H8v2zm0-4h8v-2H8v2z"/>
  </symbol>
  <!-- Ícono de dashboard -->
  <symbol id="dashboard" viewBox="0 0 24 24">
    <path d="M3 13h8V3H3zm2-8h4v6H5zm8 16h8v-8h-8zm2-6h4v4h-4zm-10 6h8v-8H3zm2-6h4v4H5zm10-6V3h8v8zM17 5v4h4V5z"/>
  </symbol>
  <!-- Ícono de propietarios -->
  <symbol id="profile" viewBox="0 0 24 24">
    <path d="M12 12c2.21 0 4-1.79 4-4S14.21 4 12 4s-4 1.79-4 4 1.79 4 4 4zm0 2c-2.61 0-8 1.3-8 4v2h16v-2c0-2.7-5.39-4-8-4z"/>
  </symbol>
  <!-- Ícono de menú hamburguesa -->
  <symbol id="menu" viewBox="0 0 24 24">
    <path d="M3 6h18v2H3zm0 6h18v2H3zm0 6h18v2H3z"/>
  </symbol>
  <!-- Ícono de pin/ubicación -->
  <symbol id="map-pin" viewBox="0 0 24 24">
    <path d="M12 2C8.13 2 5 5.13 5 9c0 5.25 7 13 7 13s7-7.75 7-13c0-3.87-3.13-7-7-7zm0 9.5c-1.38 0-2.5-1.12-2.5-2.5s1.12-2.5 2.5-2.5 2.5 1.12 2.5 2.5-1.12 2.5-2.5 2.5z"/>
  </symbol>
  <!-- Ícono de flecha derecha -->
  <symbol id="chevron-right" viewBox="0 0 24 24">
    <path d="M10 6L8.59 7.41 13.17 12l-4.58 4.59L10 18l6-6z"/>
  </symbol>
</svg>